Alegreya Sans SC-Thin.ufo
<glyph name="exclam" format="1">
  <advance width="247"/>
  <unicode hex="0021"/>
  <outline>
    <contour>
      <point x="125" y="654" type="line"/>
      <point x="122" y="651" type="line"/>
      <point x="114" y="203" type="line"/>
      <point x="118" y="198" type="line"/>
      <point x="134" y="198" type="line"/>
      <point x="142" y="651" type="line"/>
      <point x="139" y="654" type="line"/>
    </contour>
    <component base="period"/>
  </outline>
</glyph>
<glyph name="comma" format="1">
  <advance width="230"/>
  <unicode hex="002C"/>
  <outline>
    <contour>
      <point x="105" y="38"/>
      <point x="101" y="34"/>
      <point x="98" y="30" type="curve"/>
      <point x="98" y="26" type="line"/>
      <point x="117" y="17"/>
      <point x="128" y="5"/>
      <point x="128" y="-8" type="curve"/>
      <point x="128" y="-32"/>
      <point x="109" y="-60"/>
      <point x="74" y="-86" type="curve"/>
      <point x="73" y="-89" type="line"/>
      <point x="83" y="-100" type="line"/>
      <point x="126" y="-67"/>
      <point x="149" y="-34"/>
      <point x="149" y="-7" type="curve"/>
      <point x="149" y="13"/>
      <point x="135" y="30"/>
      <point x="111" y="41" type="curve"/>
    </contour>
  </outline>
</glyph>
<glyph name="one" format="1">
  <advance width="328"/>
  <unicode hex="0031"/>
  <outline>
    <contour>
      <point x="15" y="440" type="line"/>
      <point x="15" y="424" type="line"/>
      <point x="20" y="421" type="line"/>
      <point x="166" y="466" type="line"/>
      <point x="166" y="201" type="line"/>
      <point x="166" y="0" type="line"/>
      <point x="186" y="0" type="line"/>
      <point x="186" y="206" type="line"/>
      <point x="186" y="489" type="line"/>
      <point x="182" y="493" type="line"/>
    </contour>
  </outline>
</glyph>
<glyph name="four" format="1">
  <advance width="457"/>
  <unicode hex="0034"/>
  <outline>
    <contour>
      <point x="292" y="491" type="line"/>
      <point x="32" y="119" type="line"/>
      <point x="32" y="102" type="line"/>
      <point x="35" y="98" type="line"/>
      <point x="77" y="99" type="line"/>
      <point x="346" y="99" type="line"/>
      <point x="417" y="98" type="line"/>
      <point x="421" y="115" type="line"/>
      <point x="417" y="119" type="line"/>
      <point x="56" y="119" type="line"/>
      <point x="288" y="452" type="line"/>
      <point x="292" y="452" type="line"/>
      <point x="292" y="109" type="line"/>
      <point x="292" y="-95" type="line"/>
      <point x="294" y="-98" type="line"/>
      <point x="310" y="-95" type="line"/>
      <point x="312" y="-92" type="line"/>
      <point x="312" y="111" type="line"/>
      <point x="312" y="491" type="line"/>
    </contour>
  </outline>
</glyph>
<glyph name="E" format="1">
  <advance width="454"/>
  <unicode hex="0045"/>
  <outline>
    <contour>
      <point x="110" y="637" type="line"/>
      <point x="110" y="195" type="line"/>
      <point x="110" y="0" type="line"/>
      <point x="130" y="0" type="line"/>
      <point x="130" y="195" type="line"/>
      <point x="130" y="637" type="line"/>
    </contour>
    <contour>
      <point x="262" y="20" type="line"/>
      <point x="124" y="20" type="line"/>
      <point x="120" y="4" type="line"/>
      <point x="124" y="0" type="line"/>
      <point x="421" y="0" type="line"/>
      <point x="425" y="16" type="line"/>
      <point x="422" y="20" type="line"/>
    </contour>
    <contour>
      <point x="261" y="340" type="line"/>
      <point x="124" y="340" type="line"/>
      <point x="120" y="324" type="line"/>
      <point x="124" y="320" type="line"/>
      <point x="257" y="320" type="line"/>
      <point x="367" y="320" type="line"/>
      <point x="371" y="336" type="line"/>
      <point x="368" y="340" type="line"/>
    </contour>
    <contour>
      <point x="124" y="637" type="line"/>
      <point x="120" y="621" type="line"/>
      <point x="124" y="617" type="line"/>
      <point x="270" y="617" type="line"/>
      <point x="417" y="617" type="line"/>
      <point x="421" y="633" type="line"/>
      <point x="418" y="637" type="line"/>
    </contour>
    <contour>
      <point x="267" y="0" type="move" name="bottom"/>
    </contour>
    <contour>
      <point x="431" y="10" type="move" name="ogonek"/>
    </contour>
    <contour>
      <point x="266" y="637" type="move" name="top"/>
    </contour>
  </outline>
</glyph>
<glyph name="L" format="1">
  <advance width="398"/>
  <unicode hex="004C"/>
  <outline>
    <contour>
      <point x="109" y="637" type="line"/>
      <point x="109" y="195" type="line"/>
      <point x="109" y="0" type="line"/>
      <point x="129" y="0" type="line"/>
      <point x="129" y="195" type="line"/>
      <point x="129" y="637" type="line"/>
    </contour>
    <contour>
      <point x="120" y="20" type="line"/>
      <point x="116" y="4" type="line"/>
      <point x="120" y="0" type="line"/>
      <point x="389" y="0" type="line"/>
      <point x="393" y="16" type="line"/>
      <point x="390" y="20" type="line"/>
    </contour>
    <contour>
      <point x="236" y="0" type="move" name="bottom"/>
    </contour>
    <contour>
      <point x="196" y="637" type="move" name="top"/>
    </contour>
  </outline>
</glyph>
<glyph name="N" format="1">
  <advance width="670"/>
  <unicode hex="004E"/>
  <outline>
    <contour>
      <point x="540" y="636" type="line"/>
      <point x="538" y="42" type="line"/>
      <point x="534" y="42" type="line"/>
      <point x="130" y="637" type="line"/>
      <point x="111" y="637" type="line"/>
      <point x="110" y="190" type="line"/>
      <point x="110" y="0" type="line"/>
      <point x="130" y="0" type="line"/>
      <point x="130" y="199" type="line"/>
      <point x="131" y="595" type="line"/>
      <point x="135" y="595" type="line"/>
      <point x="539" y="0" type="line"/>
      <point x="558" y="0" type="line"/>
      <point x="559" y="176" type="line"/>
      <point x="560" y="638" type="line"/>
    </contour>
    <contour>
      <point x="330" y="0" type="move" name="bottom"/>
    </contour>
    <contour>
      <point x="331" y="637" type="move" name="top"/>
    </contour>
  </outline>
</glyph>
<glyph name="P" format="1">
  <advance width="484"/>
  <unicode hex="0050"/>
  <outline>
    <contour>
      <point x="110" y="637" type="line"/>
      <point x="116" y="618" type="line"/>
      <point x="258" y="619" type="line"/>
      <point x="357" y="615"/>
      <point x="412" y="558"/>
      <point x="412" y="460" type="curve" smooth="yes"/>
      <point x="412" y="350"/>
      <point x="354" y="279"/>
      <point x="249" y="269" type="curve"/>
      <point x="120" y="269" type="line"/>
      <point x="120" y="249" type="line"/>
      <point x="219" y="249" type="line"/>
      <point x="356" y="249"/>
      <point x="432" y="324"/>
      <point x="432" y="460" type="curve" smooth="yes"/>
      <point x="432" y="575"/>
      <point x="367" y="639"/>
      <point x="251" y="639" type="curve"/>
    </contour>
    <contour>
      <point x="110" y="637" type="line"/>
      <point x="110" y="195" type="line"/>
      <point x="110" y="0" type="line"/>
      <point x="130" y="0" type="line"/>
      <point x="130" y="195" type="line"/>
      <point x="130" y="637" type="line"/>
    </contour>
  </outline>
</glyph>
<glyph name="T" format="1">
  <advance width="475"/>
  <unicode hex="0054"/>
  <outline>
    <contour>
      <point x="228" y="627" type="line"/>
      <point x="228" y="195" type="line"/>
      <point x="228" y="0" type="line"/>
      <point x="248" y="0" type="line"/>
      <point x="248" y="195" type="line"/>
      <point x="248" y="627" type="line"/>
    </contour>
    <contour>
      <point x="32" y="637" type="line"/>
      <point x="28" y="621" type="line"/>
      <point x="31" y="617" type="line"/>
      <point x="135" y="617" type="line"/>
      <point x="342" y="617" type="line"/>
      <point x="443" y="617" type="line"/>
      <point x="447" y="633" type="line"/>
      <point x="444" y="637" type="line"/>
    </contour>
    <contour>
      <point x="230" y="0" type="move" name="bottom"/>
    </contour>
    <contour>
      <point x="242" y="319" type="move" name="center"/>
    </contour>
    <contour>
      <point x="242" y="637" type="move" name="top"/>
    </contour>
  </outline>
</glyph>
<glyph name="U" format="1">
  <advance width="612"/>
  <unicode hex="0055"/>
  <outline>
    <contour>
      <point x="506" y="637" type="line"/>
      <point x="506" y="229" type="line" smooth="yes"/>
      <point x="506" y="92"/>
      <point x="435" y="16"/>
      <point x="306" y="16" type="curve" smooth="yes"/>
      <point x="176" y="16"/>
      <point x="105" y="92"/>
      <point x="106" y="229" type="curve" smooth="yes"/>
      <point x="106" y="637" type="line"/>
      <point x="86" y="637" type="line"/>
      <point x="86" y="322" type="line"/>
      <point x="86" y="229" type="line" smooth="yes"/>
      <point x="86" y="79"/>
      <point x="163" y="-4"/>
      <point x="306" y="-4" type="curve" smooth="yes"/>
      <point x="448" y="-4"/>
      <point x="530" y="82"/>
      <point x="526" y="229" type="curve"/>
      <point x="526" y="312" type="line"/>
      <point x="526" y="637" type="line"/>
    </contour>
    <contour>
      <point x="478" y="10" type="move" name="ogonek"/>
    </contour>
    <contour>
      <point x="310" y="637" type="move" name="top"/>
    </contour>
  </outline>
</glyph>
<glyph name="V" format="1">
  <advance width="538"/>
  <unicode hex="0056"/>
  <outline>
    <contour>
      <point x="503" y="637" type="line"/>
      <point x="489" y="594" type="line"/>
      <point x="266" y="34" type="line"/>
      <point x="262" y="34" type="line"/>
      <point x="56" y="594" type="line"/>
      <point x="43" y="637" type="line"/>
      <point x="20" y="637" type="line"/>
      <point x="253" y="0" type="line"/>
      <point x="273" y="0" type="line"/>
      <point x="527" y="637" type="line" smooth="yes"/>
    </contour>
  </outline>
</glyph>
<glyph name="b" format="1">
  <advance width="444"/>
  <unicode hex="0062"/>
  <outline>
    <contour>
      <point x="108" y="491" type="line"/>
      <point x="115" y="473" type="line"/>
      <point x="149" y="473"/>
      <point x="184" y="473"/>
      <point x="216" y="473" type="curve" smooth="yes"/>
      <point x="284" y="473"/>
      <point x="327" y="436"/>
      <point x="327" y="377" type="curve" smooth="yes"/>
      <point x="327" y="315"/>
      <point x="294" y="274"/>
      <point x="234" y="263" type="curve"/>
      <point x="118" y="265" type="line"/>
      <point x="118" y="244" type="line"/>
      <point x="241" y="245" type="line"/>
      <point x="323" y="238"/>
      <point x="368" y="201"/>
      <point x="368" y="136" type="curve" smooth="yes"/>
      <point x="368" y="61"/>
      <point x="307" y="16"/>
      <point x="197" y="16" type="curve" smooth="yes"/>
      <point x="170" y="16"/>
      <point x="140" y="17"/>
      <point x="116" y="20" type="curve"/>
      <point x="108" y="0" type="line"/>
      <point x="137" y="-2"/>
      <point x="174" y="-2"/>
      <point x="200" y="-2" type="curve" smooth="yes"/>
      <point x="322" y="-2"/>
      <point x="389" y="48"/>
      <point x="389" y="136" type="curve" smooth="yes"/>
      <point x="389" y="208"/>
      <point x="343" y="247"/>
      <point x="270" y="257" type="curve"/>
      <point x="319" y="276"/>
      <point x="349" y="315"/>
      <point x="349" y="378" type="curve" smooth="yes"/>
      <point x="349" y="451"/>
      <point x="299" y="492"/>
      <point x="213" y="492" type="curve"/>
    </contour>
    <contour>
      <point x="108" y="491" type="line"/>
      <point x="108" y="150" type="line"/>
      <point x="108" y="0" type="line"/>
      <point x="128" y="0" type="line"/>
      <point x="128" y="151" type="line"/>
      <point x="128" y="491" type="line"/>
    </contour>
  </outline>
</glyph>
<glyph name="i" format="1">
  <advance width="237"/>
  <unicode hex="0069"/>
  <outline>
    <contour>
      <point x="108" y="491" type="line"/>
      <point x="108" y="150" type="line"/>
      <point x="108" y="0" type="line"/>
      <point x="128" y="0" type="line"/>
      <point x="128" y="151" type="line"/>
      <point x="128" y="491" type="line"/>
    </contour>
    <contour>
      <point x="171" y="8" type="move" name="ogonek"/>
    </contour>
    <contour>
      <point x="120" y="491" type="move" name="top"/>
    </contour>
  </outline>
</glyph>
<glyph name="o" format="1">
  <advance width="553"/>
  <unicode hex="006F"/>
  <outline>
    <contour>
      <point x="137" y="495"/>
      <point x="58" y="405"/>
      <point x="58" y="244" type="curve" smooth="yes"/>
      <point x="58" y="85"/>
      <point x="135" y="-4"/>
      <point x="272" y="-4" type="curve" smooth="yes"/>
      <point x="415" y="-4"/>
      <point x="495" y="88"/>
      <point x="495" y="254" type="curve" smooth="yes"/>
      <point x="495" y="408"/>
      <point x="419" y="495"/>
      <point x="281" y="495" type="curve"/>
    </contour>
    <contour>
      <point x="406" y="475"/>
      <point x="475" y="396"/>
      <point x="475" y="252" type="curve" smooth="yes"/>
      <point x="475" y="99"/>
      <point x="402" y="15"/>
      <point x="272" y="15" type="curve" smooth="yes"/>
      <point x="148" y="15"/>
      <point x="79" y="96"/>
      <point x="79" y="245" type="curve" smooth="yes"/>
      <point x="79" y="394"/>
      <point x="150" y="475"/>
      <point x="280" y="475" type="curve" smooth="yes"/>
    </contour>
    <contour>
      <point x="278" y="491" type="move" name="top"/>
    </contour>
  </outline>
</glyph>
<glyph name="v" format="1">
  <advance width="481"/>
  <unicode hex="0076"/>
  <outline>
    <contour>
      <point x="430" y="491" type="line"/>
      <point x="418" y="456" type="line"/>
      <point x="238" y="30" type="line"/>
      <point x="235" y="30" type="line"/>
      <point x="69" y="456" type="line"/>
      <point x="58" y="491" type="line"/>
      <point x="35" y="491" type="line"/>
      <point x="225" y="0" type="line"/>
      <point x="246" y="0" type="line"/>
      <point x="453" y="491" type="line" smooth="yes"/>
    </contour>
  </outline>
</glyph>
<glyph name="x" format="1">
  <advance width="504"/>
  <unicode hex="0078"/>
  <outline>
    <contour>
      <point x="406" y="491" type="line"/>
      <point x="387" y="459" type="line"/>
      <point x="246" y="270" type="line"/>
      <point x="103" y="463" type="line"/>
      <point x="85" y="491" type="line"/>
      <point x="57" y="491" type="line"/>
      <point x="233" y="254" type="line"/>
      <point x="46" y="0" type="line"/>
      <point x="72" y="0" type="line"/>
      <point x="90" y="29" type="line"/>
      <point x="246" y="238" type="line"/>
      <point x="401" y="30" type="line"/>
      <point x="421" y="0" type="line"/>
      <point x="448" y="0" type="line"/>
      <point x="259" y="254" type="line"/>
      <point x="433" y="491" type="line"/>
    </contour>
  </outline>
</glyph>
<glyph name="y" format="1">
  <advance width="447"/>
  <unicode hex="0079"/>
  <outline>
    <contour>
      <point x="380" y="491" type="line"/>
      <point x="370" y="470" type="line"/>
      <point x="218" y="217" type="line"/>
      <point x="214" y="217" type="line"/>
      <point x="74" y="470" type="line"/>
      <point x="65" y="491" type="line"/>
      <point x="40" y="491" type="line"/>
      <point x="212" y="176" type="line"/>
      <point x="220" y="176" type="line"/>
      <point x="405" y="491" type="line" smooth="yes"/>
    </contour>
    <contour>
      <point x="206" y="206" type="line"/>
      <point x="206" y="149" type="line"/>
      <point x="206" y="0" type="line"/>
      <point x="226" y="0" type="line"/>
      <point x="226" y="149" type="line"/>
      <point x="226" y="206" type="line"/>
    </contour>
    <contour>
      <point x="226" y="491" type="move" name="top"/>
    </contour>
  </outline>
</glyph>
<glyph name="z" format="1">
  <advance width="455"/>
  <unicode hex="007A"/>
  <outline>
    <contour>
      <point x="367" y="491" type="line"/>
      <point x="118" y="491" type="line"/>
      <point x="63" y="492" type="line"/>
      <point x="60" y="475" type="line"/>
      <point x="63" y="471" type="line"/>
      <point x="112" y="472" type="line"/>
      <point x="371" y="472" type="line"/>
      <point x="45" y="16" type="line"/>
      <point x="45" y="-1" type="line"/>
      <point x="76" y="0" type="line"/>
      <point x="335" y="0" type="line"/>
      <point x="397" y="0" type="line"/>
      <point x="400" y="16" type="line"/>
      <point x="396" y="20" type="line"/>
      <point x="339" y="19" type="line"/>
      <point x="72" y="19" type="line"/>
      <point x="398" y="474" type="line"/>
      <point x="398" y="492" type="line"/>
    </contour>
    <contour>
      <point x="214" y="491" type="move" name="top"/>
    </contour>
  </outline>
</glyph>
<glyph name="yen" format="1">
  <advance width="434"/>
  <unicode hex="00A5"/>
  <outline>
    <contour>
      <point x="18" y="150" type="line"/>
      <point x="16" y="133" type="line"/>
      <point x="19" y="130" type="line"/>
      <point x="416" y="130" type="line"/>
      <point x="418" y="147" type="line"/>
      <point x="415" y="150" type="line"/>
    </contour>
    <contour>
      <point x="18" y="280" type="line"/>
      <point x="16" y="263" type="line"/>
      <point x="19" y="260" type="line"/>
      <point x="178" y="260" type="line"/>
      <point x="168" y="280" type="line"/>
    </contour>
    <contour>
      <point x="258" y="280" type="line"/>
      <point x="248" y="260" type="line"/>
      <point x="416" y="260" type="line"/>
      <point x="418" y="277" type="line"/>
      <point x="415" y="280" type="line"/>
    </contour>
    <contour>
      <point x="380" y="491" type="line"/>
      <point x="370" y="470" type="line"/>
      <point x="218" y="217" type="line"/>
      <point x="214" y="217" type="line"/>
      <point x="74" y="470" type="line"/>
      <point x="65" y="491" type="line"/>
      <point x="40" y="491" type="line"/>
      <point x="212" y="176" type="line"/>
      <point x="220" y="176" type="line"/>
      <point x="405" y="491" type="line" smooth="yes"/>
    </contour>
    <contour>
      <point x="206" y="206" type="line"/>
      <point x="206" y="149" type="line"/>
      <point x="206" y="0" type="line"/>
      <point x="226" y="0" type="line"/>
      <point x="226" y="149" type="line"/>
      <point x="226" y="206" type="line"/>
    </contour>
    <contour>
      <point x="226" y="491" type="move" name="top"/>
    </contour>
  </outline>
</glyph>
<glyph name="acute" format="1">
  <advance width="390"/>
  <unicode hex="00B4"/>
  <outline>
    <contour>
      <point x="207" y="614"/>
      <point x="161" y="571"/>
      <point x="115" y="532" type="curve"/>
      <point x="126" y="519" type="line"/>
      <point x="131" y="518" type="line"/>
      <point x="181" y="562"/>
      <point x="227" y="605"/>
      <point x="275" y="653" type="curve"/>
      <point x="276" y="658" type="line"/>
      <point x="266" y="668" type="line"/>
      <point x="261" y="669" type="line"/>
    </contour>
    <contour>
      <point x="164" y="452" type="move" name="_top"/>
    </contour>
  </outline>
</glyph>
<glyph name="multiply" format="1">
  <advance width="480"/>
  <unicode hex="00D7"/>
  <outline>
    <contour>
      <point x="240" y="284" type="line"/>
      <point x="106" y="418" type="line"/>
      <point x="93" y="407" type="line"/>
      <point x="93" y="403" type="line"/>
      <point x="226" y="270" type="line"/>
      <point x="93" y="137" type="line"/>
      <point x="93" y="133" type="line"/>
      <point x="106" y="122" type="line"/>
      <point x="240" y="256" type="line"/>
      <point x="374" y="122" type="line"/>
      <point x="387" y="133" type="line"/>
      <point x="387" y="137" type="line"/>
      <point x="254" y="270" type="line"/>
      <point x="387" y="403" type="line"/>
      <point x="387" y="407" type="line"/>
      <point x="374" y="418" type="line"/>
    </contour>
  </outline>
</glyph>
<glyph name="Oslash" format="1">
  <advance width="627"/>
  <unicode hex="00D8"/>
  <outline>
    <contour>
      <point x="477" y="709" type="line"/>
      <point x="113" y="-80" type="line"/>
      <point x="115" y="-84" type="line"/>
      <point x="131" y="-87" type="line"/>
      <point x="495" y="701" type="line"/>
      <point x="493" y="706" type="line"/>
    </contour>
    <component base="O"/>
    <contour>
      <point x="312" y="637" type="move" name="top"/>
    </contour>
  </outline>
</glyph>
<glyph name="oslash" format="1">
  <advance width="553"/>
  <unicode hex="00F8"/>
  <outline>
    <contour>
      <point x="402" y="550" type="line"/>
      <point x="122" y="-80" type="line"/>
      <point x="124" y="-84" type="line"/>
      <point x="140" y="-87" type="line"/>
      <point x="419" y="543" type="line"/>
      <point x="417" y="548" type="line"/>
    </contour>
    <component base="o"/>
    <contour>
      <point x="256" y="491" type="move" name="top"/>
    </contour>
  </outline>
</glyph>
<glyph name="aogonek" format="1">
  <advance width="494"/>
  <unicode hex="0105"/>
  <outline>
    <contour>
      <point x="429" y="0" type="line"/>
      <point x="380" y="-82"/>
      <point x="369" y="-110"/>
      <point x="369" y="-138" type="curve" smooth="yes"/>
      <point x="369" y="-176"/>
      <point x="398" y="-196"/>
      <point x="428" y="-196" type="curve" smooth="yes"/>
      <point x="460" y="-196"/>
      <point x="486" y="-174"/>
      <point x="508" y="-139" type="curve"/>
      <point x="497" y="-123" type="line"/>
      <point x="495" y="-123" type="line"/>
      <point x="476" y="-156"/>
      <point x="454" y="-176"/>
      <point x="429" y="-176" type="curve" smooth="yes"/>
      <point x="409" y="-176"/>
      <point x="389" y="-164"/>
      <point x="389" y="-136" type="curve" smooth="yes"/>
      <point x="389" y="-112"/>
      <point x="398" y="-86"/>
      <point x="452" y="0" type="curve"/>
    </contour>
    <component base="a"/>
  </outline>
</glyph>
<glyph name="Hbar" format="1">
  <advance width="700"/>
  <unicode hex="0126"/>
  <outline>
    <contour>
      <point x="57" y="504" type="line"/>
      <point x="55" y="487" type="line"/>
      <point x="59" y="484" type="line"/>
      <point x="643" y="484" type="line"/>
      <point x="645" y="501" type="line"/>
      <point x="641" y="504" type="line"/>
    </contour>
    <component base="H" xOffset="15"/>
  </outline>
</glyph>
<glyph name="ldot" format="1">
  <advance width="375"/>
  <unicode hex="0140"/>
  <outline>
    <contour>
      <point x="195" y="-89" type="move"/>
    </contour>
    <component base="l"/>
    <component base="periodcentered" xOffset="133" yOffset="27"/>
  </outline>
</glyph>
<glyph name="eng" format="1">
  <advance width="588"/>
  <unicode hex="014B"/>
  <outline>
    <contour>
      <point x="460" y="490" type="line"/>
      <point x="460" y="40" type="line"/>
      <point x="455" y="40" type="line"/>
      <point x="129" y="491" type="line"/>
      <point x="109" y="491" type="line"/>
      <point x="109" y="146" type="line"/>
      <point x="108" y="0" type="line"/>
      <point x="128" y="0" type="line"/>
      <point x="128" y="154" type="line"/>
      <point x="128" y="451" type="line"/>
      <point x="132" y="451" type="line"/>
      <point x="457" y="3" type="line"/>
      <point x="451" y="-38"/>
      <point x="430" y="-68"/>
      <point x="390" y="-99" type="curve"/>
      <point x="390" y="-104" type="line"/>
      <point x="400" y="-115" type="line"/>
      <point x="457" y="-72"/>
      <point x="478" y="-32"/>
      <point x="478" y="35" type="curve" smooth="yes"/>
      <point x="478" y="137" type="line"/>
      <point x="480" y="492" type="line"/>
    </contour>
  </outline>
</glyph>
<glyph name="tcedilla" format="1">
  <advance width="428"/>
  <unicode hex="0163"/>
  <outline>
    <contour>
      <point x="205" y="0" type="line"/>
      <point x="184" y="-64" type="line"/>
      <point x="228" y="-92" type="line" smooth="yes"/>
      <point x="243" y="-102"/>
      <point x="252" y="-109"/>
      <point x="252" y="-125" type="curve" smooth="yes"/>
      <point x="252" y="-146"/>
      <point x="236" y="-158"/>
      <point x="212" y="-158" type="curve" smooth="yes"/>
      <point x="187" y="-158"/>
      <point x="175" y="-145"/>
      <point x="163" y="-127" type="curve"/>
      <point x="159" y="-127" type="line"/>
      <point x="153" y="-145" type="line"/>
      <point x="163" y="-160"/>
      <point x="182" y="-178"/>
      <point x="212" y="-178" type="curve" smooth="yes"/>
      <point x="244" y="-178"/>
      <point x="272" y="-158"/>
      <point x="272" y="-125" type="curve" smooth="yes"/>
      <point x="272" y="-103"/>
      <point x="261" y="-89"/>
      <point x="239" y="-75" type="curve" smooth="yes"/>
      <point x="208" y="-55" type="line"/>
      <point x="225" y="0" type="line"/>
    </contour>
    <component base="t"/>
  </outline>
</glyph>
<glyph name="Tbar" format="1">
  <advance width="475"/>
  <unicode hex="0166"/>
  <outline>
    <contour>
      <point x="130" y="350" type="line"/>
      <point x="128" y="333" type="line"/>
      <point x="131" y="330" type="line"/>
      <point x="353" y="330" type="line"/>
      <point x="355" y="347" type="line"/>
      <point x="352" y="350" type="line"/>
    </contour>
    <component base="T"/>
  </outline>
</glyph>
<glyph name="Uogonek" format="1">
  <advance width="612"/>
  <unicode hex="0172"/>
  <outline>
    <contour>
      <point x="415" y="40" type="line"/>
      <point x="339" y="-72" type="line" smooth="yes"/>
      <point x="326" y="-91"/>
      <point x="319" y="-112"/>
      <point x="319" y="-132" type="curve" smooth="yes"/>
      <point x="319" y="-172"/>
      <point x="345" y="-197"/>
      <point x="384" y="-197" type="curve" smooth="yes"/>
      <point x="419" y="-197"/>
      <point x="451" y="-175"/>
      <point x="478" y="-140" type="curve"/>
      <point x="467" y="-124" type="line"/>
      <point x="465" y="-124" type="line"/>
      <point x="441" y="-157"/>
      <point x="412" y="-177"/>
      <point x="384" y="-177" type="curve" smooth="yes"/>
      <point x="356" y="-177"/>
      <point x="339" y="-158"/>
      <point x="339" y="-132" type="curve" smooth="yes"/>
      <point x="339" y="-116"/>
      <point x="344" y="-100"/>
      <point x="359" y="-78" type="curve" smooth="yes"/>
      <point x="439" y="40" type="line"/>
    </contour>
    <component base="U"/>
  </outline>
</glyph>
<glyph name="Ohorn" format="1">
  <advance width="630"/>
  <unicode hex="01A0"/>
  <outline>
    <contour>
      <point x="556" y="753"/>
      <point x="552" y="752"/>
      <point x="546" y="748" type="curve"/>
      <point x="544" y="743" type="line"/>
      <point x="566" y="720"/>
      <point x="578" y="695"/>
      <point x="578" y="671" type="curve" smooth="yes"/>
      <point x="578" y="628"/>
      <point x="536" y="605"/>
      <point x="494" y="605" type="curve" smooth="yes"/>
      <point x="444" y="605"/>
      <point x="418" y="642"/>
      <point x="321" y="642" type="curve" smooth="yes"/>
      <point x="143" y="642"/>
      <point x="48" y="526"/>
      <point x="48" y="317" type="curve" smooth="yes"/>
      <point x="48" y="110"/>
      <point x="141" y="-5"/>
      <point x="309" y="-5" type="curve" smooth="yes"/>
      <point x="482" y="-5"/>
      <point x="579" y="117"/>
      <point x="579" y="325" type="curve" smooth="yes"/>
      <point x="579" y="446"/>
      <point x="547" y="533"/>
      <point x="482" y="587" type="curve"/>
      <point x="548" y="584"/>
      <point x="598" y="614"/>
      <point x="598" y="675" type="curve" smooth="yes"/>
      <point x="598" y="720"/>
      <point x="571" y="753"/>
      <point x="559" y="753" type="curve" smooth="yes"/>
    </contour>
    <contour>
      <point x="473" y="622"/>
      <point x="559" y="519"/>
      <point x="559" y="326" type="curve" smooth="yes"/>
      <point x="559" y="129"/>
      <point x="469" y="15"/>
      <point x="309" y="15" type="curve" smooth="yes"/>
      <point x="154" y="15"/>
      <point x="68" y="123"/>
      <point x="68" y="316" type="curve" smooth="yes"/>
      <point x="68" y="513"/>
      <point x="157" y="622"/>
      <point x="317" y="622" type="curve" smooth="yes"/>
    </contour>
    <contour>
      <point x="314" y="637" type="move" name="top"/>
    </contour>
  </outline>
</glyph>
<glyph name="Uhorn" format="1">
  <advance width="622"/>
  <unicode hex="01AF"/>
  <outline>
    <contour>
      <point x="563" y="761"/>
      <point x="559" y="760"/>
      <point x="553" y="756" type="curve"/>
      <point x="551" y="751" type="line"/>
      <point x="577" y="726"/>
      <point x="585" y="708"/>
      <point x="585" y="690" type="curve" smooth="yes"/>
      <point x="585" y="658"/>
      <point x="558" y="637"/>
      <point x="516" y="637" type="curve"/>
      <point x="515" y="617" type="line"/>
      <point x="569" y="617"/>
      <point x="605" y="646"/>
      <point x="605" y="690" type="curve" smooth="yes"/>
      <point x="605" y="730"/>
      <point x="576" y="761"/>
      <point x="565" y="761" type="curve" smooth="yes"/>
    </contour>
    <component base="U"/>
    <contour>
      <point x="310" y="637" type="move" name="top"/>
    </contour>
  </outline>
</glyph>
<glyph name="uhorn" format="1">
  <advance width="549"/>
  <unicode hex="01B0"/>
  <outline>
    <contour>
      <point x="481" y="587"/>
      <point x="477" y="586"/>
      <point x="472" y="582" type="curve"/>
      <point x="470" y="578" type="line"/>
      <point x="491" y="559"/>
      <point x="498" y="545"/>
      <point x="498" y="531" type="curve" smooth="yes"/>
      <point x="498" y="507"/>
      <point x="476" y="491"/>
      <point x="442" y="491" type="curve"/>
      <point x="442" y="473" type="line"/>
      <point x="487" y="474"/>
      <point x="517" y="497"/>
      <point x="517" y="532" type="curve" smooth="yes"/>
      <point x="517" y="563"/>
      <point x="493" y="587"/>
      <point x="484" y="587" type="curve" smooth="yes"/>
    </contour>
    <component base="u"/>
    <contour>
      <point x="265" y="491" type="move" name="top"/>
    </contour>
  </outline>
</glyph>
<glyph name="oogonek" format="1">
  <advance width="553"/>
  <unicode hex="01EB"/>
  <outline>
    <contour>
      <point x="339" y="11" type="line"/>
      <point x="283" y="-72" type="line" smooth="yes"/>
      <point x="270" y="-91"/>
      <point x="263" y="-112"/>
      <point x="263" y="-132" type="curve" smooth="yes"/>
      <point x="263" y="-172"/>
      <point x="289" y="-197"/>
      <point x="328" y="-197" type="curve" smooth="yes"/>
      <point x="363" y="-197"/>
      <point x="395" y="-175"/>
      <point x="422" y="-140" type="curve"/>
      <point x="411" y="-124" type="line"/>
      <point x="409" y="-124" type="line"/>
      <point x="385" y="-157"/>
      <point x="356" y="-177"/>
      <point x="328" y="-177" type="curve" smooth="yes"/>
      <point x="300" y="-177"/>
      <point x="283" y="-158"/>
      <point x="283" y="-132" type="curve" smooth="yes"/>
      <point x="283" y="-116"/>
      <point x="288" y="-100"/>
      <point x="303" y="-78" type="curve" smooth="yes"/>
      <point x="369" y="20" type="line"/>
    </contour>
    <component base="o"/>
  </outline>
</glyph>
<glyph name="tildecomb" format="1">
  <advance width="390"/>
  <unicode hex="0303"/>
  <outline>
    <contour>
      <point x="321" y="631" type="line"/>
      <point x="294" y="607"/>
      <point x="281" y="590"/>
      <point x="270" y="590" type="curve"/>
      <point x="245" y="590"/>
      <point x="152" y="625"/>
      <point x="115" y="629" type="curve"/>
      <point x="109" y="627" type="line"/>
      <point x="56" y="579" type="line"/>
      <point x="56" y="575" type="line"/>
      <point x="65" y="564" type="line"/>
      <point x="69" y="564" type="line"/>
      <point x="96" y="588"/>
      <point x="109" y="605"/>
      <point x="120" y="605" type="curve"/>
      <point x="145" y="605"/>
      <point x="238" y="570"/>
      <point x="275" y="566" type="curve"/>
      <point x="281" y="568" type="line"/>
      <point x="334" y="616" type="line"/>
      <point x="334" y="620" type="line"/>
      <point x="325" y="631" type="line"/>
    </contour>
    <contour>
      <point x="195" y="452" type="move" name="_top"/>
    </contour>
  </outline>
</glyph>
<glyph name="pi" format="1">
  <advance width="580"/>
  <unicode hex="03C0"/>
  <outline>
    <contour>
      <point x="422" y="491" type="line"/>
      <point x="95" y="491" type="line"/>
      <point x="80" y="488" type="line"/>
      <point x="15" y="433" type="line"/>
      <point x="15" y="428" type="line"/>
      <point x="22" y="419" type="line"/>
      <point x="28" y="419" type="line"/>
      <point x="64" y="451"/>
      <point x="88" y="471"/>
      <point x="100" y="471" type="curve" smooth="yes"/>
      <point x="395" y="471" type="line"/>
      <point x="395" y="79" type="line" smooth="yes"/>
      <point x="395" y="20"/>
      <point x="414" y="-3"/>
      <point x="450" y="-3" type="curve" smooth="yes"/>
      <point x="467" y="-3"/>
      <point x="482" y="2"/>
      <point x="495" y="11" type="curve"/>
      <point x="499" y="29" type="line"/>
      <point x="493" y="32" type="line"/>
      <point x="481" y="22"/>
      <point x="464" y="17"/>
      <point x="451" y="17" type="curve" smooth="yes"/>
      <point x="426" y="17"/>
      <point x="415" y="36"/>
      <point x="415" y="79" type="curve" smooth="yes"/>
      <point x="415" y="471" type="line"/>
      <point x="539" y="471" type="line"/>
      <point x="543" y="487" type="line"/>
      <point x="540" y="491" type="line"/>
    </contour>
    <contour>
      <point x="161" y="482" type="line"/>
      <point x="161" y="196" type="line"/>
      <point x="161" y="-98" type="line"/>
      <point x="181" y="-98" type="line"/>
      <point x="181" y="196" type="line"/>
      <point x="181" y="482" type="line"/>
    </contour>
  </outline>
</glyph>
<glyph name="odotbelow" format="1">
  <advance width="553"/>
  <unicode hex="1ECD"/>
  <outline>
    <component base="o"/>
    <component base="dotbelowcomb" xOffset="163"/>
    <contour>
      <point x="258" y="491" type="move" name="top"/>
    </contour>
  </outline>
</glyph>
<glyph name="perthousand" format="1">
  <advance width="1165"/>
  <unicode hex="2030"/>
  <outline>
    <contour>
      <point x="160" y="516" type="move"/>
    </contour>
    <component base="fraction" xOffset="373"/>
    <component base="zero.dnom" xOffset="419" yScale="0.92"/>
    <component base="zero.dnom" xOffset="792" yScale="0.92"/>
    <component base="zero.numr" yOffset="54" yScale="0.92"/>
  </outline>
</glyph>
<glyph name="estimated" format="1">
  <advance width="789"/>
  <unicode hex="212E"/>
  <outline>
    <contour>
      <point x="203" y="648"/>
      <point x="39" y="502"/>
      <point x="39" y="319" type="curve"/>
      <point x="39" y="137"/>
      <point x="203" y="-9"/>
      <point x="405" y="-9" type="curve"/>
      <point x="520" y="-9"/>
      <point x="624" y="39"/>
      <point x="690" y="114" type="curve"/>
      <point x="660" y="114" type="line"/>
      <point x="598" y="53"/>
      <point x="507" y="11"/>
      <point x="406" y="11" type="curve"/>
      <point x="316" y="11"/>
      <point x="234" y="48"/>
      <point x="178" y="103" type="curve"/>
      <point x="173" y="109"/>
      <point x="168" y="117"/>
      <point x="168" y="126" type="curve"/>
      <point x="168" y="307" type="line"/>
      <point x="168" y="312"/>
      <point x="172" y="314"/>
      <point x="176" y="314" type="curve"/>
      <point x="770" y="314" type="line"/>
      <point x="770" y="319" type="line"/>
      <point x="770" y="502"/>
      <point x="607" y="648"/>
      <point x="405" y="648" type="curve"/>
    </contour>
    <contour>
      <point x="494" y="628"/>
      <point x="574" y="595"/>
      <point x="631" y="540" type="curve"/>
      <point x="637" y="534"/>
      <point x="642" y="526"/>
      <point x="642" y="516" type="curve"/>
      <point x="642" y="342" type="line"/>
      <point x="642" y="338"/>
      <point x="638" y="334"/>
      <point x="634" y="334" type="curve"/>
      <point x="176" y="334" type="line"/>
      <point x="172" y="334"/>
      <point x="168" y="338"/>
      <point x="168" y="342" type="curve"/>
      <point x="168" y="512" type="line"/>
      <point x="168" y="522"/>
      <point x="173" y="531"/>
      <point x="179" y="537" type="curve"/>
      <point x="236" y="594"/>
      <point x="316" y="628"/>
      <point x="406" y="628" type="curve"/>
    </contour>
  </outline>
</glyph>
<glyph name="arrowdown" format="1">
  <advance width="500"/>
  <unicode hex="2193"/>
  <outline>
    <contour>
      <point x="429" y="204" type="line"/>
      <point x="249" y="27" type="line"/>
      <point x="69" y="204" type="line"/>
      <point x="63" y="204" type="line"/>
      <point x="55" y="190" type="line"/>
      <point x="247" y="0" type="line"/>
      <point x="251" y="0" type="line"/>
      <point x="443" y="190" type="line"/>
      <point x="435" y="204" type="line"/>
    </contour>
    <contour>
      <point x="239" y="452" type="line"/>
      <point x="239" y="17" type="line"/>
      <point x="259" y="17" type="line"/>
      <point x="259" y="452" type="line"/>
      <point x="241" y="454" type="line"/>
    </contour>
  </outline>
</glyph>
<glyph name="caron.alt" format="1">
  <advance width="390"/>
  <outline>
    <contour>
      <point x="191" y="653" type="line"/>
      <point x="179" y="509" type="line"/>
      <point x="182" y="505" type="line"/>
      <point x="199" y="507" type="line"/>
      <point x="211" y="651" type="line"/>
      <point x="208" y="655" type="line"/>
    </contour>
    <contour>
      <point x="195" y="452" type="move" name="_top"/>
    </contour>
  </outline>
</glyph>
<glyph name="circumflex.cap" format="1">
  <advance width="390"/>
  <outline>
    <component base="caron.cap" xOffset="390" yOffset="1187" xScale="-1" yScale="-1"/>
    <contour>
      <point x="195" y="452" type="move" name="_top"/>
    </contour>
  </outline>
</glyph>
<glyph name="dieresisacute" format="1">
  <advance width="390"/>
  <outline>
    <contour>
      <point x="252" y="595"/>
      <point x="244" y="587"/>
      <point x="244" y="575" type="curve" smooth="yes"/>
      <point x="244" y="563"/>
      <point x="252" y="555"/>
      <point x="264" y="555" type="curve" smooth="yes"/>
      <point x="276" y="555"/>
      <point x="284" y="563"/>
      <point x="284" y="575" type="curve" smooth="yes"/>
      <point x="284" y="587"/>
      <point x="276" y="595"/>
      <point x="264" y="595" type="curve" smooth="yes"/>
    </contour>
    <contour>
      <point x="112" y="595"/>
      <point x="104" y="587"/>
      <point x="104" y="575" type="curve" smooth="yes"/>
      <point x="104" y="563"/>
      <point x="112" y="555"/>
      <point x="124" y="555" type="curve" smooth="yes"/>
      <point x="136" y="555"/>
      <point x="144" y="563"/>
      <point x="144" y="575" type="curve" smooth="yes"/>
      <point x="144" y="587"/>
      <point x="136" y="595"/>
      <point x="124" y="595" type="curve" smooth="yes"/>
    </contour>
    <contour>
      <point x="215" y="709"/>
      <point x="155" y="690"/>
      <point x="97" y="674" type="curve"/>
      <point x="101" y="658" type="line"/>
      <point x="106" y="654" type="line"/>
      <point x="169" y="673"/>
      <point x="229" y="692"/>
      <point x="293" y="715" type="curve"/>
      <point x="296" y="720" type="line"/>
      <point x="291" y="733" type="line"/>
      <point x="287" y="736" type="line"/>
    </contour>
    <contour>
      <point x="195" y="452" type="move" name="_top"/>
    </contour>
  </outline>
</glyph>
<glyph name="iacute_j.loclNLD" format="1">
  <advance width="498"/>
  <outline>
    <contour>
      <point x="201" y="219" type="move"/>
    </contour>
    <component base="iacute"/>
    <component base="j" xOffset="237"/>
    <component base="acute" xOffset="186" yOffset="39"/>
  </outline>
</glyph>
<glyph name="k.sups" format="1">
  <advance width="273"/>
  <outline>
    <contour>
      <point x="241" y="640" type="line"/>
      <point x="223" y="617" type="line"/>
      <point x="110" y="506" type="line"/>
      <point x="110" y="503" type="line"/>
      <point x="157" y="449"/>
      <point x="207" y="396"/>
      <point x="259" y="346" type="curve"/>
      <point x="262" y="345" type="line"/>
      <point x="268" y="347"/>
      <point x="274" y="348"/>
      <point x="279" y="351" type="curve"/>
      <point x="279" y="355" type="line"/>
      <point x="230" y="402"/>
      <point x="180" y="453"/>
      <point x="134" y="505" type="curve"/>
      <point x="269" y="640" type="line"/>
    </contour>
    <contour>
      <point x="71" y="796" type="line"/>
      <point x="71" y="475" type="line"/>
      <point x="71" y="350" type="line"/>
      <point x="93" y="350" type="line"/>
      <point x="92" y="476" type="line"/>
      <point x="93" y="799" type="line"/>
    </contour>
    <contour>
      <point x="180" y="0" type="move" name="bottom"/>
    </contour>
  </outline>
</glyph>
<glyph name="nine.tf" format="1">
  <advance width="475"/>
  <outline>
    <contour>
      <point x="131" y="594"/>
      <point x="68" y="530"/>
      <point x="68" y="414" type="curve"/>
      <point x="68" y="310"/>
      <point x="127" y="253"/>
      <point x="226" y="253" type="curve" smooth="yes"/>
      <point x="288" y="253"/>
      <point x="342" y="276"/>
      <point x="388" y="313" type="curve"/>
      <point x="394" y="308" type="line"/>
      <point x="400" y="346" type="line"/>
      <point x="350" y="301"/>
      <point x="291" y="273"/>
      <point x="227" y="273" type="curve" smooth="yes"/>
      <point x="140" y="273"/>
      <point x="88" y="323"/>
      <point x="88" y="414" type="curve"/>
      <point x="88" y="517"/>
      <point x="144" y="574"/>
      <point x="246" y="574" type="curve"/>
      <point x="343" y="574"/>
      <point x="396" y="505"/>
      <point x="396" y="382" type="curve"/>
      <point x="396" y="211"/>
      <point x="292" y="80"/>
      <point x="98" y="11" type="curve"/>
      <point x="98" y="7" type="line"/>
      <point x="107" y="-4" type="line"/>
      <point x="111" y="-4" type="line"/>
      <point x="305" y="64"/>
      <point x="416" y="203"/>
      <point x="416" y="382" type="curve"/>
      <point x="416" y="518"/>
      <point x="355" y="594"/>
      <point x="246" y="594" type="curve"/>
    </contour>
  </outline>
</glyph>
<glyph name="puso.cap" format="1">
  <advance width="105"/>
  <outline>
    <contour>
      <point x="49" y="153" type="move"/>
    </contour>
    <component base="quotesingle" xOffset="-12" yOffset="-377" yScale="1.55"/>
  </outline>
</glyph>
